# xmcd
#
# Track frame offsets: 
#        150
#        10300
#        21062
#        32987
#        44845
#        59192
#        69617
#        87192
#        98420
#        108275
#        120905
#        133517
#        145175
#        156692
#        169530
#        181015
#        195437
#        206872
#
# Disc length: 3422 seconds
#
# Revision: 2
# Processed by: cddbd v1.5.2PL0 Copyright (c) Steve Scherf et al.
# Submitted via: ExactAudioCopyFreeDBPlugin 1.0
#
DISCID=fa0d5c12
DTITLE=Various Artist - Bo Diddley Beats
DYEAR=1992
DGENRE=Rhythm and Blues
TTITLE0=Red Saunders and His Orchestra - Hambone
TTITLE1=The Crickets - Not Fade Away
TTITLE2=Blues Rockers - Calling All Cows
TTITLE3=The Johnny Otis Show - Willie and the Hand Jive
TTITLE4=Donovan - Hey Gyp (Dig the Slowness)
TTITLE5=Dee Clark - Hey Little Girl
TTITLE6=Shirley and Company - Shame, Shame, Shame
TTITLE7=Bo Diddley - Bo Diddley
TTITLE8=Joe Reisman's Orchestra and Chorus - Bo Diddley
TTITLE9=Lonnie and Ed Young - Chevrolet
TTITLE10=King Cotton - Arkansas Jane
TTITLE11=The Strangeloves - I Want Candy
TTITLE12=Bob Landers and Willie Joe and His Unitar - Cherokee Dance
TTITLE13=The Miracles - Mickey's Monkey
TTITLE14=Ben E. King - Let the Water Run Down
TTITLE15=Gene Krupa and His Orchestra - Tonight (Perfida)
TTITLE16=Big Daddy - Purple Rain
TTITLE17=Oboade, with Mustapha Tettey Addy - Ma-Mi Ayiko (Well Done, M
TTITLE17=ama)
EXTD=
EXTT0=
EXTT1=
EXTT2=
EXTT3=
EXTT4=
EXTT5=
EXTT6=
EXTT7=
EXTT8=
EXTT9=
EXTT10=
EXTT11=
EXTT12=
EXTT13=
EXTT14=
EXTT15=
EXTT16=
EXTT17=
PLAYORDER=
